<svg xmlns="http://www.w3.org/2000/svg" width="20" height="20" fill="none" viewBox="0 0 20 20">
    <path fill="#000" fill-rule="evenodd" d="M2.929 2.929c-3.905 3.905-3.905 10.237 0 14.142 3.905 3.905 10.237 3.905 14.142 0 3.905-3.905 3.905-10.237 0-14.142-3.905-3.905-10.237-3.905-14.142 0zm.565.566a9.2 9.2 0 0 1 13.174 12.843c-.27-2.133-1.436-3.306-3.434-3.947a5.09 5.09 0 0 1-.796-.332 4.397 4.397 0 0 1-.603-.377c.172-.173.332-.36.476-.558.325-.44.575-.927.722-1.385l.038-.126c-.02.07-.004.084.003.091l.064-.033a.43.43 0 0 0 .171-.176c.566-1.017.54-1.747.046-2.147l-.072-.054a6.148 6.148 0 0 0-.14-1.311l-.036-.147c-.008-.241-.142-.679-.48-1.113-.55-.706-1.465-1.122-2.786-1.122-1.317 0-2.23.416-2.781 1.12-.185.238-.31.475-.388.693-.065.182-.1.35-.11.492-.001-.022-.013.027-.025.077-.1.448-.138.906-.14 1.311l-.072.054c-.493.4-.518 1.13.046 2.147a.437.437 0 0 0 .172.176l.063.04c-.01-.01.032-.001.003-.099l.041.128c.128.398.333.817.597 1.21.175.26.376.509.599.732-.171.127-.372.256-.604.377-.245.128-.51.24-.796.332-.783.252-1.455.597-1.994 1.044-.771.64-1.27 1.484-1.436 2.555a9.2 9.2 0 0 1 .478-12.495zm7.11 9.01c.206-.074.406-.177.597-.302.198.167.488.367.867.566.284.148.592.278.922.383 1.882.605 2.83 1.668 2.93 3.827 0 .02.004.04.008.058a9.201 9.201 0 0 1-12.173-.28c.02-1.873 1.08-3.009 2.936-3.605.33-.105.637-.235.921-.383.38-.199.668-.399.868-.566.418.274.88.442 1.36.442.262 0 .517-.05.764-.14zm-3.461-3.4L7.07 9.06l-.04-.026c-.203-.38-.286-.667-.279-.863.004-.11.032-.165.077-.202.026-.02.05-.03.047-.03a.4.4 0 0 0 .325-.415V7.48a5.471 5.471 0 0 1 .117-1.323l.03-.12c.024-.241.114-.53.342-.822.163-.208.374-.383.64-.517.381-.19.877-.297 1.51-.297 1.083 0 1.764.31 2.155.813.227.291.315.58.326.749l.041.194c.102.451.13.93.12 1.323l-.003.044a.4.4 0 0 0 .326.415c-.003 0 .021.01.046.03.03.023.051.054.064.103a.39.39 0 0 1 .014.099c.003.106-.019.238-.073.397a3.247 3.247 0 0 1-.207.467l-.047.03c-.048.03-.079.05-.109.073-.107.079-.153.123-.191.256-.157.556-.544 1.21-1.03 1.703-.43.437-.937.747-1.431.747-1.052 0-2.165-1.4-2.462-2.45-.038-.133-.084-.177-.191-.256l-.045-.033zm5.506-.07a4.449 4.449 0 0 1-.039.071c.04-.07.043-.073.077-.095l-.038.024z" clip-rule="evenodd"/>
</svg>
