<svg xmlns="http://www.w3.org/2000/svg" width="25" height="20" fill="none" viewBox="0 0 25 20">
    <path fill="none" d="M0 0h25v20H0z"/>
    <path fill="#000" fill-rule="evenodd" d="M14.312.683l5.761 5.716H4.927L10.688.683a.394.394 0 0 0 0-.565.406.406 0 0 0-.57 0L3.786 6.398H.564c-.047 0-.084 0-.116.003a.504.504 0 0 0-.122.028.466.466 0 0 0-.326.45v3.039c0 .249.187.46.454.46a.508.508 0 0 0 .238-.06h1.094l2.755 7.34C4.985 19.071 6.338 20 7.903 20h9.275c1.48 0 2.826-.924 3.361-2.34l2.755-7.34h1.142c.052 0 .09 0 .125-.005a.638.638 0 0 0 .113-.026.466.466 0 0 0 .326-.45V6.88a.466.466 0 0 0-.326-.45.637.637 0 0 0-.238-.03h-3.222L14.882.117a.406.406 0 0 0-.675.18c-.035.134 0 .281.104.386zM5.304 17.4l-2.658-7.08h19.788l-2.65 7.06a2.844 2.844 0 0 1-1.068 1.35c-.448.3-.982.47-1.538.47H7.903c-1.221 0-2.256-.71-2.6-1.8zM12.097 16v-3.2a.4.4 0 0 1 .403-.4c.223 0 .403.18.403.4V16c0 .222-.18.4-.403.4a.402.402 0 0 1-.403-.4zm4.193-3.2V16a.404.404 0 1 0 .807 0v-3.2c0-.22-.181-.4-.404-.4a.402.402 0 0 0-.403.4zM7.903 16v-3.2c0-.22.181-.4.404-.4.222 0 .403.18.403.4V16a.399.399 0 0 1-.403.4.402.402 0 0 1-.404-.4zm16.29-8.8v2.32H.807V7.2h23.386z" clip-rule="evenodd"/>
</svg>
