<?xml version="1.0" encoding="UTF-8"?>
<!DOCTYPE svg PUBLIC "-//W3C//DTD SVG 1.1//EN" "http://www.w3.org/Graphics/SVG/1.1/DTD/svg11.dtd">
<!-- Creator: CorelDRAW 2018 (64-Bit) -->
<svg xmlns="http://www.w3.org/2000/svg" xml:space="preserve" width="154px" height="40px" version="1.1" style="shape-rendering:geometricPrecision; text-rendering:geometricPrecision; image-rendering:optimizeQuality; fill-rule:evenodd; clip-rule:evenodd"
viewBox="0 0 14.97 3.88"
 xmlns:xlink="http://www.w3.org/1999/xlink">
 <defs>
  <style type="text/css">
   <![CDATA[
    .fil4 {fill:black}
    .fil1 {fill:#00AFEF}
    .fil2 {fill:#EC268F}
    .fil3 {fill:#FFF212}
    .fil0 {fill:black;fill-rule:nonzero}
   ]]>
  </style>
 </defs>
 <g id="Layer_x0020_1">
  <metadata id="CorelCorpID_0Corel-Layer"/>
  <g id="_2097147669952">
   <path class="fil0" d="M0.02 3.88l0.65 0 0 -1.05 0.01 0c0.03,0.05 0.08,0.09 0.13,0.12 0.05,0.04 0.11,0.07 0.18,0.09 0.07,0.02 0.15,0.03 0.24,0.03 0.09,0 0.19,-0.01 0.28,-0.04 0.09,-0.03 0.18,-0.07 0.26,-0.13 0.08,-0.06 0.15,-0.14 0.21,-0.23 0.07,-0.09 0.11,-0.19 0.15,-0.31 0.04,-0.13 0.05,-0.26 0.05,-0.42 0,-0.16 -0.02,-0.32 -0.07,-0.45 -0.04,-0.13 -0.11,-0.24 -0.19,-0.33 -0.08,-0.1 -0.17,-0.17 -0.28,-0.22 -0.1,-0.04 -0.21,-0.07 -0.33,-0.07 -0.15,0 -0.29,0.03 -0.41,0.09 -0.12,0.06 -0.21,0.14 -0.29,0.25l-0.01 0 -0.03 -0.29 -0.57 0c0,0.1 0.01,0.2 0.01,0.32 0.01,0.12 0.01,0.25 0.01,0.38l0 2.26zm0.65 -2.05c0,-0.02 0,-0.04 0,-0.06 0.01,-0.02 0.01,-0.04 0.02,-0.05 0.01,-0.07 0.04,-0.13 0.07,-0.18 0.04,-0.05 0.09,-0.09 0.14,-0.11 0.06,-0.03 0.11,-0.05 0.18,-0.05 0.09,0 0.18,0.03 0.24,0.08 0.07,0.05 0.12,0.12 0.15,0.21 0.03,0.09 0.05,0.19 0.05,0.3 0,0.12 -0.02,0.23 -0.05,0.32 -0.04,0.09 -0.09,0.15 -0.16,0.2 -0.06,0.05 -0.15,0.08 -0.24,0.08 -0.07,0 -0.12,-0.02 -0.18,-0.04 -0.05,-0.03 -0.09,-0.07 -0.13,-0.11 -0.03,-0.05 -0.06,-0.1 -0.07,-0.16 -0.01,-0.02 -0.01,-0.04 -0.02,-0.07 0,-0.02 0,-0.04 0,-0.07l0 -0.29zm1.92 1.2l0.66 0 0 -1.07c0,-0.03 0,-0.06 0,-0.08 0,-0.02 0.01,-0.05 0.01,-0.07 0.02,-0.1 0.07,-0.18 0.15,-0.24 0.08,-0.06 0.18,-0.09 0.3,-0.09 0.04,0 0.07,0 0.1,0 0.02,0.01 0.05,0.01 0.08,0.02l0 -0.62c-0.03,0 -0.05,-0.01 -0.07,-0.01 -0.02,0 -0.04,0 -0.07,0 -0.05,0 -0.11,0 -0.16,0.02 -0.06,0.02 -0.11,0.04 -0.16,0.08 -0.06,0.04 -0.1,0.08 -0.14,0.14 -0.05,0.05 -0.08,0.12 -0.11,0.2l-0.02 0 -0.02 -0.39 -0.56 0c0,0.06 0,0.12 0.01,0.19 0,0.07 0,0.14 0,0.22 0,0.09 0,0.18 0,0.28l0 1.42zm2.3 0l0 -2.11 -0.66 0 0 2.11 0.66 0zm0.52 0l0.66 0 0 -1.22c0,-0.03 0,-0.06 0,-0.09 0,-0.03 0.01,-0.05 0.02,-0.07 0.01,-0.04 0.04,-0.08 0.07,-0.12 0.03,-0.04 0.06,-0.07 0.11,-0.09 0.04,-0.03 0.09,-0.04 0.15,-0.04 0.08,0 0.15,0.02 0.2,0.06 0.04,0.04 0.08,0.09 0.1,0.16 0.03,0.07 0.04,0.15 0.04,0.24l0 1.17 0.65 0 0 -1.25c0,-0.16 -0.02,-0.29 -0.06,-0.4 -0.03,-0.12 -0.09,-0.21 -0.15,-0.29 -0.07,-0.07 -0.15,-0.13 -0.24,-0.16 -0.1,-0.04 -0.19,-0.06 -0.3,-0.06 -0.09,0 -0.17,0.01 -0.24,0.03 -0.07,0.03 -0.14,0.05 -0.19,0.09 -0.05,0.03 -0.1,0.07 -0.14,0.11 -0.03,0.04 -0.06,0.08 -0.08,0.11l-0.02 0 -0.03 -0.29 -0.57 0c0.01,0.09 0.01,0.2 0.02,0.31 0,0.11 0,0.23 0,0.36l0 1.44zm2.59 -2.5l0 0.39 -0.28 0 0 0.48 0.28 0 0 0.86c0,0.15 0.02,0.28 0.05,0.38 0.03,0.1 0.07,0.18 0.13,0.25 0.06,0.05 0.13,0.1 0.21,0.13 0.09,0.03 0.18,0.05 0.29,0.05 0.09,0 0.17,-0.01 0.25,-0.02 0.07,-0.01 0.13,-0.02 0.17,-0.04l0 -0.49c-0.02,0 -0.04,0 -0.06,0.01 -0.02,0 -0.04,0 -0.06,0 -0.02,0 -0.05,0 -0.08,0 -0.06,0 -0.11,-0.01 -0.15,-0.04 -0.04,-0.02 -0.07,-0.06 -0.08,-0.12 -0.02,-0.05 -0.03,-0.12 -0.03,-0.21l0 -0.76 0.47 0 0 -0.48 -0.47 0 0 -0.57 -0.64 0.18zm2.45 0.39l0.77 2.11 0.65 0 0.78 -2.11 -0.69 0 -0.27 0.98c-0.02,0.09 -0.04,0.17 -0.06,0.26 -0.02,0.08 -0.04,0.16 -0.05,0.25l-0.02 0c-0.01,-0.08 -0.03,-0.17 -0.05,-0.25 -0.02,-0.09 -0.04,-0.17 -0.07,-0.26l-0.28 -0.98 -0.71 0zm3.45 -0.05c-0.17,0 -0.33,0.02 -0.46,0.08 -0.14,0.05 -0.26,0.12 -0.36,0.22 -0.1,0.1 -0.18,0.21 -0.23,0.35 -0.05,0.14 -0.08,0.3 -0.08,0.47 0,0.17 0.03,0.32 0.08,0.45 0.06,0.14 0.14,0.25 0.23,0.34 0.1,0.1 0.22,0.17 0.35,0.22 0.13,0.05 0.28,0.07 0.43,0.07 0.11,0 0.23,-0.01 0.33,-0.04 0.11,-0.03 0.21,-0.07 0.31,-0.13 0.09,-0.06 0.17,-0.13 0.24,-0.22 0.08,-0.09 0.13,-0.2 0.17,-0.32 0.04,-0.12 0.06,-0.26 0.06,-0.41 0,-0.16 -0.02,-0.31 -0.08,-0.44 -0.05,-0.13 -0.12,-0.25 -0.21,-0.34 -0.1,-0.1 -0.21,-0.17 -0.34,-0.22 -0.13,-0.06 -0.28,-0.08 -0.44,-0.08zm-0.02 0.47c0.07,0 0.14,0.01 0.19,0.05 0.05,0.04 0.1,0.08 0.13,0.14 0.03,0.06 0.06,0.13 0.07,0.21 0.02,0.07 0.03,0.15 0.03,0.23 0,0.12 -0.02,0.24 -0.06,0.33 -0.03,0.1 -0.08,0.17 -0.14,0.22 -0.06,0.06 -0.14,0.08 -0.22,0.08 -0.1,0 -0.17,-0.03 -0.24,-0.08 -0.06,-0.06 -0.11,-0.13 -0.14,-0.23 -0.04,-0.09 -0.05,-0.2 -0.05,-0.32 0,-0.08 0.01,-0.16 0.02,-0.23 0.02,-0.08 0.04,-0.14 0.08,-0.2 0.03,-0.06 0.08,-0.11 0.13,-0.15 0.05,-0.03 0.12,-0.05 0.2,-0.05z"/>
   <g>
    <g>
     <polygon class="fil1" points="9.51,0.93 9.51,1.45 10.18,1.45 10.18,0.93 "/>
     <polygon class="fil2" points="9.51,1.45 9.51,1.98 10.18,1.98 10.18,1.45 "/>
     <polygon class="fil3" points="9.51,1.98 9.51,2.5 10.18,2.5 10.18,1.98 "/>
     <polygon class="fil4" points="9.51,2.5 9.51,3.03 10.18,3.03 10.18,2.5 "/>
    </g>
    <path class="fil4" d="M9.85 0c-0.2,0 -0.36,0.16 -0.36,0.35 0,0.2 0.16,0.36 0.36,0.36 0.19,0 0.35,-0.16 0.35,-0.36 0,-0.19 -0.16,-0.35 -0.35,-0.35z"/>
   </g>
   <path class="fil4" d="M4.57 0c-0.2,0 -0.36,0.16 -0.36,0.35 0,0.2 0.16,0.36 0.36,0.36 0.19,0 0.35,-0.16 0.35,-0.36 0,-0.19 -0.16,-0.35 -0.35,-0.35z"/>
  </g>
 </g>
</svg>
